<?xml version="1.0" standalone="no"?>
<!DOCTYPE svg PUBLIC "-//W3C//DTD SVG 20010904//EN"
 "http://www.w3.org/TR/2001/REC-SVG-20010904/DTD/svg10.dtd">
<svg version="1.0" xmlns="http://www.w3.org/2000/svg"
 width="200.000000pt" height="200.000000pt" viewBox="0 0 200.000000 200.000000"
 preserveAspectRatio="xMidYMid meet">

<g transform="translate(0.000000,200.000000) scale(0.100000,-0.100000)"
fill="#000000" stroke="none">
<path d="M783 1559 c-18 -12 -33 -23 -33 -26 0 -3 11 2 25 11 61 40 146 8 243
-91 63 -65 84 -65 35 -1 -37 48 -82 84 -134 108 -56 25 -96 25 -136 -1z"/>
<path d="M1160 1465 c0 -26 -18 -33 -37 -14 -15 15 -28 -8 -28 -51 0 -28 -4
-35 -20 -35 -26 0 -32 -39 -11 -61 20 -19 20 -38 1 -54 -24 -20 -19 -58 8 -62
18 -2 22 -9 22 -38 0 -19 4 -41 9 -49 7 -12 11 -11 23 4 14 21 29 13 35 -20 2
-11 10 -20 18 -20 8 0 16 9 18 20 6 33 22 42 36 22 12 -15 15 -15 26 -2 7 8
10 24 7 36 -8 29 2 49 24 49 14 0 19 7 19 30 0 17 -4 30 -10 30 -13 0 -13 43
1 57 15 15 7 59 -10 55 -21 -5 -31 19 -25 54 7 36 -12 56 -30 32 -16 -21 -36
-11 -36 18 0 17 -6 24 -20 24 -15 0 -20 -7 -20 -25z m45 -81 c26 -10 45 -59
45 -114 0 -44 -5 -56 -29 -81 -35 -35 -42 -36 -76 -6 -45 38 -47 145 -5 187
21 21 37 24 65 14z"/>
<path d="M1156 1334 c-32 -31 -14 -124 23 -124 40 0 61 62 37 109 -18 34 -37
39 -60 15z"/>
<path d="M721 1464 c0 -11 3 -14 6 -6 3 7 2 16 -1 19 -3 4 -6 -2 -5 -13z"/>
<path d="M715 1340 c4 -89 32 -220 34 -160 0 14 -4 42 -10 63 -5 20 -14 72
-19 115 l-9 77 4 -95z"/>
<path d="M786 1338 c-13 -18 -16 -55 -16 -200 0 -97 4 -188 10 -202 l10 -26
199 0 199 0 11 33 c5 17 10 49 9 70 0 55 -22 41 -28 -19 l-5 -49 -179 -3
c-114 -1 -183 1 -190 8 -11 11 -19 295 -10 343 l6 27 113 0 c94 0 114 3 119
16 3 9 6 18 6 20 0 2 -54 4 -119 4 -113 0 -121 -1 -135 -22z"/>
<path d="M977 1213 c-7 -13 -30 -173 -25 -178 3 -3 12 36 21 87 15 84 17 113
4 91z"/>
<path d="M892 1148 c-18 -18 -15 -43 8 -63 18 -16 20 -16 20 -2 0 9 -7 20 -16
25 -14 8 -14 10 0 21 17 14 21 31 8 31 -4 0 -13 -5 -20 -12z"/>
<path d="M1010 1150 c0 -5 8 -14 18 -19 16 -10 16 -12 -2 -26 -25 -19 -14 -30
13 -13 26 16 27 30 3 51 -21 19 -32 22 -32 7z"/>
<path d="M1244 1043 c13 -40 26 -129 26 -172 0 -168 -111 -223 -236 -118 -18
15 -42 27 -55 27 l-23 0 22 -20 c54 -51 115 -80 167 -80 45 0 55 4 82 33 45
47 56 94 50 211 -5 103 -12 136 -29 136 -5 0 -7 -8 -4 -17z"/>
<path d="M750 851 c0 -5 7 -17 16 -25 22 -22 159 -23 168 -1 8 21 102 21 110
0 5 -13 21 -15 82 -13 67 3 79 6 92 26 l14 22 -241 0 c-142 0 -241 -4 -241 -9z"/>
<path d="M287 553 c-4 -21 -9 -71 -13 -110 -6 -61 -4 -73 8 -73 11 0 18 19 25
68 l10 67 1 -68 c2 -87 20 -85 44 4 l17 64 -5 -55 c-3 -30 -7 -61 -9 -67 -3
-7 4 -13 14 -13 14 0 19 15 29 89 17 126 16 133 -10 129 -19 -2 -26 -15 -40
-63 l-16 -60 -1 63 c-1 58 -2 62 -25 62 -19 0 -24 -6 -29 -37z"/>
<path d="M430 565 c0 -14 5 -25 11 -25 11 0 5 -123 -8 -156 -3 -9 2 -14 15
-14 16 0 21 9 26 53 12 96 18 117 32 117 8 0 14 10 14 25 0 23 -4 25 -45 25
-41 0 -45 -2 -45 -25z"/>
<path d="M570 565 c0 -14 5 -25 11 -25 11 0 7 -69 -7 -142 -5 -23 -2 -28 14
-28 16 0 20 10 26 63 10 86 16 107 32 107 8 0 14 10 14 25 0 23 -4 25 -45 25
-41 0 -45 -2 -45 -25z"/>
<path d="M669 568 c0 -13 -6 -62 -13 -110 l-12 -88 43 0 c36 0 43 3 43 20 0
13 -7 20 -20 20 -15 0 -20 7 -20 25 0 20 5 25 25 25 18 0 25 5 25 20 0 13 -7
20 -20 20 -13 0 -20 7 -20 20 0 15 7 20 25 20 20 0 25 5 25 25 0 23 -4 25 -40
25 -35 0 -40 -3 -41 -22z"/>
<path d="M787 575 c-22 -21 -37 -79 -37 -142 0 -42 4 -54 19 -63 26 -13 27
-13 51 12 21 23 28 78 9 78 -5 0 -15 -13 -20 -30 -13 -36 -32 -29 -25 8 3 15
8 46 11 70 7 42 25 59 25 22 0 -11 7 -20 16 -20 12 0 14 9 12 38 -2 29 -8 38
-24 40 -12 2 -29 -4 -37 -13z"/>
<path d="M876 563 c-7 -34 -26 -163 -26 -181 0 -8 8 -12 18 -10 11 2 19 16 22
42 3 22 11 41 17 44 10 3 11 -8 7 -42 -6 -38 -4 -46 9 -46 19 0 22 12 37 123
13 99 13 97 -4 97 -16 0 -26 -21 -26 -56 0 -15 -6 -24 -15 -24 -12 0 -14 8 -9
40 5 32 4 40 -9 40 -9 0 -18 -12 -21 -27z"/>
<path d="M990 578 c-1 -7 -7 -57 -14 -110 -12 -93 -11 -98 6 -98 13 0 18 8 19
33 1 17 5 43 9 57 6 19 8 11 9 -32 1 -51 4 -58 21 -58 20 0 20 -1 40 137 12
89 13 83 -4 83 -17 0 -26 -22 -26 -60 0 -16 -4 -32 -10 -35 -6 -4 -10 13 -10
44 0 44 -3 51 -20 51 -11 0 -20 -6 -20 -12z"/>
<path d="M1116 568 c-30 -49 -38 -170 -12 -196 13 -13 17 -13 40 1 14 10 30
33 35 54 15 51 14 136 -1 151 -19 19 -46 14 -62 -10z m40 -65 c-11 -81 -17
-103 -28 -103 -7 0 -8 21 -4 61 8 70 14 89 28 89 6 0 8 -18 4 -47z"/>
<path d="M1216 563 c-7 -34 -26 -163 -26 -180 0 -8 15 -13 40 -13 33 0 40 3
40 20 0 14 -7 20 -21 20 -19 0 -21 4 -16 38 19 123 20 142 4 142 -9 0 -18 -12
-21 -27z"/>
<path d="M1310 548 c-24 -53 -27 -160 -5 -178 20 -17 50 -4 65 28 20 42 26
172 9 183 -30 19 -50 9 -69 -33z m46 -59 c-8 -70 -14 -89 -28 -89 -7 0 -8 19
-4 53 10 74 17 97 28 97 7 0 8 -22 4 -61z"/>
<path d="M1424 558 c-10 -19 -19 -65 -22 -109 -5 -84 -1 -90 56 -82 27 5 32 9
32 33 0 15 3 42 6 60 6 29 5 31 -17 28 -20 -2 -24 -9 -24 -40 0 -21 -4 -37
-10 -37 -16 0 -1 139 16 139 5 0 9 -7 9 -15 0 -18 26 -20 33 -2 9 25 -12 57
-37 57 -19 0 -30 -9 -42 -32z"/>
<path d="M1525 558 c-6 -38 -25 -169 -25 -180 0 -5 8 -8 19 -8 15 0 19 11 25
68 4 37 10 86 13 110 5 34 3 42 -10 42 -10 0 -18 -12 -22 -32z"/>
<path d="M1580 583 c0 -5 -4 -35 -9 -68 -5 -33 -12 -79 -15 -103 l-6 -43 42 3
c31 2 44 8 46 21 2 11 -3 17 -17 17 -11 0 -22 4 -25 9 -10 16 5 41 25 41 10 0
19 2 19 4 0 2 3 11 6 20 4 12 0 16 -15 16 -30 0 -29 38 2 42 14 2 23 11 25 26
3 20 -1 22 -37 22 -23 0 -41 -3 -41 -7z"/>
<path d="M1686 568 c-23 -33 -21 -95 4 -108 21 -11 27 -44 10 -55 -5 -3 -10 1
-10 9 0 9 -9 16 -20 16 -26 0 -28 -45 -2 -59 66 -35 111 72 56 130 -14 15 -23
32 -20 38 10 16 26 13 26 -4 0 -8 7 -15 15 -15 9 0 15 9 15 23 0 47 -47 63
-74 25z"/>
</g>
</svg>
